<svg width="22" height="25" viewBox="0 0 22 25" fill="none" xmlns="http://www.w3.org/2000/svg">
<path d="M4 8.33334V7.16667C4 3.30068 7.13401 0.166672 11 0.166672C14.866 0.166672 18 3.30068 18 7.16667V8.33334H20.3333C20.9777 8.33334 21.5 8.85568 21.5 9.5V23.5C21.5 24.1444 20.9777 24.6667 20.3333 24.6667H1.66667C1.02234 24.6667 0.5 24.1444 0.5 23.5V9.5C0.5 8.85568 1.02234 8.33334 1.66667 8.33334H4ZM19.1667 10.6667H2.83333V22.3333H19.1667V10.6667ZM9.83333 17.3545C9.1359 16.951 8.66667 16.197 8.66667 15.3333C8.66667 14.0446 9.7113 13 11 13C12.2887 13 13.3333 14.0446 13.3333 15.3333C13.3333 16.197 12.8641 16.951 12.1667 17.3545V20H9.83333V17.3545ZM6.33333 8.33334H15.6667V7.16667C15.6667 4.58934 13.5773 2.50001 11 2.50001C8.42267 2.50001 6.33333 4.58934 6.33333 7.16667V8.33334Z" fill="#1C1C1C"/>
</svg>
